<?xml version="1.0" encoding="UTF-8"?>
<svg id="Camada_2" data-name="Camada 2" xmlns="http://www.w3.org/2000/svg" viewBox="0 0 500 500">
  <defs>
    <style>
      .cls-1 {
        fill: #d9ff6a;
      }

      .cls-2 {
        fill: #0b0d11;
      }
    </style>
  </defs>
  <g id="Camada_2-2" data-name="Camada 2">
    <g>
      <rect class="cls-2" width="500" height="500"/>
      <g>
        <path class="cls-1" d="M267.37,299.1c-18.59-18.49-35.14-34.19-54.78-49.29-44.18-33.99-96.64-42.42-136.77-.19,70.2,44.71,109.29,121.13,98.64,203.44l-99.52.68V44.27l116.91,116.89c28.14,28.14,54.39,55.22,84.09,81.51,23.78,19.47,51.85,32.51,82.9,33.46,24.85-.8,45.2-12.67,65.72-25.98l.19,205.64s-157.39-156.68-157.39-156.68Z"/>
        <path class="cls-1" d="M319.4,45.17l76.29-.39,29.29-.56.07,204.81c-37.84-22.66-66.35-55.02-85.92-93.25-15.62-36.16-22.54-72.66-19.74-110.63v.02Z"/>
      </g>
    </g>
  </g>
</svg>